<?xml version="1.0" encoding="utf-8"?>
<!DOCTYPE svg PUBLIC "-//W3C//DTD SVG 20010904//EN" "http://www.w3.org/TR/2001/REC-SVG-20010904/DTD/svg10.dtd">
<svg version="1.0" xmlns="http://www.w3.org/2000/svg" width="494.1mm" height="485.4mm" viewBox="0 0 494.1 485.4" preserveAspectRatio="xMidYMid meet">
 <g fill="#000000">
  <path d="M82.330 405.148 c0 -36.832 0 -36.832 19.499 -36.832 25.565 0 41.165 13.866 41.165 36.832 0 22.966 -15.599 36.832 -41.165 36.832 -19.499 0 -19.499 0 -19.499 -36.832z m40.731 21.232 c3.900 -3.467 6.933 -13.433 6.933 -21.232 0 -17.766 -9.533 -28.165 -26.432 -28.165 -12.566 0 -12.566 0 -12.566 28.165 0 28.165 0 28.165 12.566 28.165 6.933 0 16.033 -3.033 19.499 -6.933z"/>
  <path d="M158.593 432.447 c-9.533 -13.433 -8.666 -27.732 1.733 -38.132 12.133 -12.133 28.599 -11.266 37.265 2.167 9.100 13.866 4.766 19.499 -16.033 19.499 -14.299 0 -17.333 1.300 -16.033 7.800 0.867 5.200 6.066 7.800 17.766 8.666 21.232 1.733 20.799 9.533 -0.867 9.533 -12.999 0 -19.066 -2.600 -23.832 -9.533z m31.199 -30.332 c-1.300 -3.033 -6.500 -5.633 -12.133 -5.633 -5.633 0 -10.833 2.600 -11.699 5.633 -1.300 3.467 2.600 5.200 11.699 5.200 9.100 0 12.999 -1.733 12.133 -5.200z"/>
  <path d="M213.190 413.814 c-0.433 -27.732 -0.433 -27.732 38.132 -27.732 42.898 0.433 42.031 -0.433 44.198 33.798 0.433 11.699 -0.867 19.932 -3.900 20.799 -3.467 1.300 -5.633 -6.066 -6.500 -21.232 -1.300 -21.232 -2.167 -22.966 -12.133 -22.966 -9.966 0 -10.833 1.733 -12.133 22.966 -1.733 26.865 -9.533 30.332 -9.533 4.333 0 -22.532 -4.766 -30.765 -15.599 -28.599 -6.500 0.867 -8.666 6.066 -9.533 24.266 -0.867 14.733 -3.033 22.532 -6.933 22.532 -3.900 0 -5.633 -8.233 -6.066 -28.165z"/>
  <path d="M314.585 435.046 c-9.533 -9.100 -9.100 -35.965 0.867 -43.331 19.066 -14.733 44.198 -1.733 44.198 22.966 0 23.399 -29.032 36.832 -45.065 20.366z m31.199 -6.933 c12.133 -12.133 1.300 -36.398 -14.733 -32.932 -12.133 2.167 -17.333 14.299 -11.266 26.865 5.200 12.133 17.333 14.733 25.999 6.066z"/>
  <path d="M368.316 437.646 c0 -2.167 6.500 -4.333 14.733 -4.333 21.666 0 22.966 -6.933 2.600 -17.333 -17.766 -9.100 -21.232 -16.033 -12.133 -25.132 6.066 -6.066 33.798 -6.933 33.798 -0.867 0 2.600 -5.633 4.333 -12.999 4.333 -16.899 0 -16.899 9.533 0 16.033 26.432 9.966 19.932 31.632 -9.100 31.632 -9.533 0 -16.899 -1.733 -16.899 -4.333z"/>
  <path d="M149.060 272.121 c-15.599 -7.366 -19.066 -22.532 -19.066 -84.929 0.433 -61.964 2.167 -68.463 20.366 -77.996 12.566 -6.933 169.859 -6.933 184.591 -0.433 16.899 7.800 20.366 21.666 20.366 81.896 0 60.231 -3.467 74.097 -20.366 81.896 -13.433 6.066 -173.325 6.066 -185.891 -0.433z m87.963 -51.998 c13.433 -12.566 19.932 -34.232 15.599 -51.564 -2.167 -7.800 -6.066 -14.733 -9.100 -16.033 -3.900 -1.300 -44.198 71.063 -44.198 79.730 0 6.066 28.165 -3.033 37.698 -12.133z m48.964 10.833 c0 -1.300 -5.200 -11.699 -11.266 -22.099 -11.699 -19.499 -11.699 -19.499 -18.199 -3.900 -4.766 12.999 -5.200 17.333 -0.867 22.532 5.200 6.500 30.332 9.100 30.332 3.467z"/>
  <path d="M149.493 90.562 c-6.933 -10.833 8.233 -12.566 95.762 -11.699 77.130 1.300 90.562 2.167 90.562 7.800 0 5.633 -13.433 6.500 -91.862 7.800 -63.697 0.867 -92.729 -0.433 -94.462 -3.900z"/>
  <path d="M166.826 64.564 c-6.933 -10.400 7.800 -12.566 78.430 -11.699 61.530 1.300 73.230 2.167 73.230 7.800 0 5.633 -11.699 6.500 -74.530 7.800 -51.131 0.867 -75.396 -0.433 -77.130 -3.900z"/>
 </g>
</svg>